# xmcd
#
# Track frame offsets:
#	150
#	13887
#	32355
#	46048
#	59585
#	79865
#	98103
#	110106
#	128754
#	141185
#	153286
#	166636
#	181681
#	198500
#	218901
#	243731
#
# Disc length: 3540 seconds
#
# Revision: 1
# Processed by: cddbd v1.5.2PL0 Copyright (c) Steve Scherf et al.
# Submitted via: audiograbber 1.83.01
#
DISCID=d40dd210
DTITLE=Willie, Waylon, And Hank Jr. - Ask82-1
DYEAR=1900
DGENRE=Karaoke
TTITLE0=Williams, Hank Jr. - All My Rowdy Friends Are Coming Over Tonight
TTITLE1=Williams, Hank Jr. - All My Rowdy Friends Have Settled Down
TTITLE2=Williams, Hank Jr. - Attitude Adjustment
TTITLE3=Williams, Hank Jr. - Born To Boogie
TTITLE4=Williams, Hank Jr. - Country Boy Can Survive
TTITLE5=Williams, Hank Jr. - Country State Of Mind
TTITLE6=Williams, Hank Jr. - Dixie On My Mind
TTITLE7=Williams, Hank Jr. - Family Tradition
TTITLE8=Williams, Hank Jr. - Gonna Go Huntin' Tonight
TTITLE9=Williams, Hank Jr. - Mind Your Own Business
TTITLE10=Williams, Hank Jr. - There's A Tear In My Beer
TTITLE11=Williams, Hank Jr. - Whiskey Bent and Hell Bound
TTITLE12=Williams, Hank Jr. - Young Country
TTITLE13=Duet Williams, Hank Jr. and Gretchen Wilson - Outlaw Women
TTITLE14=Jennings, Waylon - Are You Sure Hank Done It This Way
TTITLE15=Data - Data
EXTD=
EXTT0=
EXTT1=
EXTT2=
EXTT3=
EXTT4=
EXTT5=
EXTT6=
EXTT7=
EXTT8=
EXTT9=
EXTT10=
EXTT11=
EXTT12=
EXTT13=
EXTT14=
EXTT15=
PLAYORDER=
